<svg width="47" height="80" viewBox="0 0 47 80" fill="none" xmlns="http://www.w3.org/2000/svg">
<path d="M23.5204 37.216C21.0244 37.216 18.7564 36.664 16.7164 35.56C14.7004 34.432 13.1164 32.896 11.9644 30.952C10.8364 29.008 10.2724 26.824 10.2724 24.4C10.2724 21.976 10.8364 19.792 11.9644 17.848C13.1164 15.904 14.7004 14.38 16.7164 13.276C18.7564 12.148 21.0244 11.584 23.5204 11.584C26.0164 11.584 28.2604 12.136 30.2524 13.24C32.2684 14.344 33.8524 15.88 35.0044 17.848C36.1564 19.792 36.7324 21.976 36.7324 24.4C36.7324 26.824 36.1564 29.02 35.0044 30.988C33.8524 32.932 32.2684 34.456 30.2524 35.56C28.2604 36.664 26.0164 37.216 23.5204 37.216ZM23.5204 34.84C25.5124 34.84 27.3124 34.396 28.9204 33.508C30.5284 32.596 31.7884 31.348 32.7004 29.764C33.6124 28.156 34.0684 26.368 34.0684 24.4C34.0684 22.432 33.6124 20.656 32.7004 19.072C31.7884 17.464 30.5284 16.216 28.9204 15.328C27.3124 14.416 25.5124 13.96 23.5204 13.96C21.5284 13.96 19.7164 14.416 18.0844 15.328C16.4764 16.216 15.2044 17.464 14.2684 19.072C13.3564 20.656 12.9004 22.432 12.9004 24.4C12.9004 26.368 13.3564 28.156 14.2684 29.764C15.2044 31.348 16.4764 32.596 18.0844 33.508C19.7164 34.396 21.5284 34.84 23.5204 34.84ZM31.8042 67L26.0442 58.9C25.3962 58.972 24.7242 59.008 24.0282 59.008H17.2602V67H14.5962V41.8H24.0282C27.2442 41.8 29.7642 42.568 31.5882 44.104C33.4122 45.64 34.3242 47.752 34.3242 50.44C34.3242 52.408 33.8202 54.076 32.8122 55.444C31.8282 56.788 30.4122 57.76 28.5642 58.36L34.7202 67H31.8042ZM23.9562 56.74C26.4522 56.74 28.3602 56.188 29.6802 55.084C31.0002 53.98 31.6602 52.432 31.6602 50.44C31.6602 48.4 31.0002 46.84 29.6802 45.76C28.3602 44.656 26.4522 44.104 23.9562 44.104H17.2602V56.74H23.9562Z" fill="black"/>
</svg>
